<svg version="1.2" xmlns="http://www.w3.org/2000/svg" viewBox="0 0 1077 255" width="1077" height="255">
	<style>
		tspan { white-space:pre } 
		.t0 { font-size: 300px;fill: #000000;font-weight: 400;font-family: "PassionOne-Regular", "Passion" } 
		.s1 { fill: #000000 } 
		.s2 { fill: #1d71b8 } 
		.s3 { fill: #1d1d1b } 
		.s4 { fill: #333333 } 
		.s5 { fill: #3d3d3d } 
		.s6 { fill: #4d4d4d } 
		.s7 { fill: #e8dc80 } 
		.s8 { fill: #d9ce78 } 
		.s9 { fill: #262626 } 
		.s10 { fill: #ffffff } 
		.s11 { fill: #e97b00 } 
	</style>
	<g id="Layer 1">
		<text id="School copy 2" style="transform: matrix(.975,0,0,.975,230.631,238.464)" >
			<tspan x="0" y="0" class="t0">S</tspan><tspan  y="0" class="t0">c</tspan><tspan  y="0" class="t0">h</tspan><tspan  y="0" class="t0">o</tspan><tspan  y="0" class="t0">o</tspan><tspan  y="0" class="t0">l
</tspan>
		</text>
		<path id="&lt;Compound Path&gt; copy 4" class="s1" d="m225.42 191.76q-0.64 0-1.27 0.06 0 0 0 0-0.63-0.06-1.27-0.06-0.68 0-1.34 0.07 0 0 0 0 0-1.03 0-2.06c-8.94 4.53-19.1 4.53-28.04 0q0 2.76 0 5.51c5.69 2.89 11.87 3.94 17.92 3.16q-0.51 0.9-0.88 1.88c-5.77 0.58-11.62-0.51-17.04-3.26q0 2.76 0 5.52c5.17 2.62 10.72 3.74 16.24 3.33q-0.01-0.12-0.02-0.25 0.07 1.2 0.34 2.34c-5.61 0.48-11.29-0.62-16.56-3.29q0 1.76 0 3.53c-0.01 1.17 0.85 2.42 1.89 2.9 5.58 2.36 11.47 3.05 17.23 2.07 2.42 2.99 6.11 4.9 10.26 4.9q0.64 0 1.27-0.06 0 0 0 0 0.63 0.06 1.27 0.06c7.27 0 13.17-5.9 13.17-13.17 0-7.28-5.9-13.18-13.17-13.18zm5.52 21.24c-2.15 2.15-5.02 3.33-8.06 3.33-3.04 0-5.91-1.18-8.06-3.33-2.15-2.16-3.34-5.02-3.34-8.06 0-3.05 1.19-5.91 3.34-8.06 2.15-2.15 5.02-3.34 8.06-3.34 3.04 0 5.91 1.19 8.06 3.34 2.15 2.15 3.34 5.01 3.34 8.06 0 3.04-1.19 5.9-3.34 8.06z"/>
		<path id="&lt;Path&gt; copy 34" class="s1" d="m230.13 206.09c-0.64 0-1.16-0.52-1.16-1.16 0-0.64 0.52-1.15 1.16-1.15 0.64 0 1.16 0.51 1.16 1.15 0 0.64-0.52 1.16-1.16 1.16z"/>
		<path id="&lt;Path&gt; copy 35" class="s1" d="m217.07 206.09c-0.64 0-1.16-0.52-1.16-1.16 0-0.64 0.52-1.15 1.16-1.15 0.64 0 1.15 0.51 1.15 1.15 0 0.64-0.51 1.16-1.15 1.16z"/>
		<path id="&lt;Path&gt; copy 36" class="s1" d="m224.76 203.41c-2.18-0.84-2.54-1.29-2.54-1.97 0-0.64 0.5-1.33 1.91-1.33 1.41 0 2.3 0.48 2.68 0.68l0.56 0.3 1.01-2.51-0.44-0.24q-1.21-0.67-2.75-0.81v-2.17h-2.59v2.32c-2.17 0.51-3.54 2.04-3.54 4.02 0 2.44 2.04 3.53 4.23 4.34 2.01 0.77 2.28 1.46 2.28 2.09 0 0.95-0.89 1.59-2.21 1.59-1.08 0-2.2-0.31-3.07-0.86l-0.59-0.37-0.97 2.55 0.37 0.25c0.81 0.54 2.07 0.93 3.33 1.04v2.25h2.62v-2.39c2.55-0.59 3.7-2.5 3.7-4.21 0-2.69-2.14-3.85-3.99-4.57z"/>
		<path id="&lt;Compound Path&gt; copy 5" class="s2" d="m75.6 187.2c7.99 0 16.36-0.7 25.58-2.15 3.1-0.48 6.29-1.05 9.75-1.74 11.54-2.29 22.85-5.26 36.43-8.89l1.55-0.42c7.53-2.01 15.32-4.1 23.22-6.04 7.51-1.85 14.26-3.36 20.62-4.61 7.87-1.54 15.37-2.73 22.64-3.59v-117.86h-37.86l-111.84 129.61 3.56 15.53q3.15 0.16 6.35 0.16zm96.98-83.84v63.49h-54.18z"/>
		<path id="&lt;Path&gt; copy 37" class="s2" d="m170.47 110.96q-0.69-0.05-1.34-0.09c-5.95-0.38-12.14-0.58-18.38-0.58-6.26 0-12.74 0.2-19.29 0.58q-2.38 0.14-4.82 0.32v45.82h52.98v-45.24q-4.52-0.48-9.15-0.81z"/>
		<path id="&lt;Path&gt; copy 38" class="s2" d="m163.63 115.7q-0.78-0.05-1.51-0.1c-6.7-0.43-13.66-0.65-20.68-0.65-7.04 0-14.34 0.22-21.7 0.65q-2.68 0.16-5.42 0.36v51.55h59.6v-50.9q-5.09-0.54-10.29-0.91z"/>
		<path id="&lt;Path&gt; copy 39" class="s2" d="m183.3 95.08q-0.69-0.05-1.34-0.09c-5.96-0.38-12.14-0.57-18.39-0.57-6.25 0-12.74 0.19-19.28 0.57q-2.38 0.14-4.83 0.32v45.82h52.99v-45.24q-4.53-0.48-9.15-0.81z"/>
		<path id="&lt;Compound Path&gt; copy 6" class="s1" d="m221.54 187.99q0-2.76 0-5.52 0 0 0 0c-0.05-2.93-6.31-5.31-14.02-5.31-7.71 0-13.96 2.38-14.01 5.31q0 0-0.01 0 0 2.76 0 5.52c8.94 4.53 19.1 4.53 28.04 0zm-24.72-4.44c-0.8-0.47-0.8-1.62 0-2.09q0.65-0.41 1.83-0.84c2.39-0.85 5.54-1.32 8.87-1.32 3.34 0 6.49 0.47 8.87 1.32q1.18 0.43 1.84 0.84c0.8 0.47 0.8 1.62 0 2.09q-0.66 0.41-1.84 0.84c-2.38 0.85-5.53 1.32-8.87 1.32-3.33 0-6.48-0.47-8.87-1.32q-1.18-0.43-1.83-0.84z"/>
		<path id="&lt;Path&gt; copy 40" class="s3" d="m188.68 203.21q2.73 0.32 5.54 0.73-0.05-0.67-0.07-1.34-0.15-4.88 1.14-9.52-5.94-0.59-11.39-0.86c-36.9-1.8-58.46 7.01-84.43 14.88-9.8 2.98-20.22 5.82-32.33 7.9-5 0.87-10.28 1.6-15.92 2.16q-5.46 0.55-11.41 0.87 5.52 0.74 10.74 1c6.04 0.31 11.83 0.17 17.44-0.3 7.33-0.61 14.38-1.77 21.34-3.22q2.84-0.59 5.68-1.24 2.86-0.65 5.74-1.34c25.5-6.15 51.37-14 87.93-9.72z"/>
		<path id="&lt;Path&gt; copy 41" class="s3" d="m190.39 209.21q1.9 0.22 3.87 0.51-0.03-0.47-0.05-0.93-0.1-3.42 0.8-6.66-4.15-0.42-7.96-0.6c-25.8-1.26-40.87 4.9-59.03 10.4-6.85 2.08-14.14 4.07-22.61 5.53q-5.22 0.91-11.13 1.51-3.82 0.38-7.97 0.6 3.85 0.52 7.5 0.7c4.23 0.22 8.27 0.12 12.2-0.21 5.12-0.43 10.05-1.24 14.91-2.25q1.99-0.41 3.98-0.87 2-0.45 4.01-0.94c17.83-4.29 35.91-9.78 61.48-6.79z"/>
		<path id="&lt;Path&gt; copy 42" class="s3" d="m188.03 193.9q3.43 0.4 6.96 0.92-0.06-0.84-0.08-1.68-0.19-6.15 1.43-11.98-7.46-0.75-14.32-1.08c-46.42-2.27-73.54 8.81-106.21 18.72-12.32 3.74-25.43 7.31-40.67 9.94-6.28 1.09-12.93 2.01-20.02 2.72q-6.87 0.69-14.35 1.08 6.93 0.94 13.5 1.26c7.61 0.39 14.88 0.21 21.94-0.38 9.23-0.76 18.09-2.23 26.84-4.05q3.58-0.74 7.15-1.55 3.6-0.82 7.22-1.7c32.08-7.72 64.61-17.6 110.61-12.22z"/>
		<text id="
 copy 2" style="transform: matrix(.087,0,0,.087,212.927,167.788)" >
		</text>
		<path id="&lt;Path&gt; copy 43" class="s4" d="m194.98 54.58l-29.19-6.77 0.02-1.56 0.03-3.8 0.01-1.69h49.92l0.02 1.48 0.04 3.65 0.02 1.54-20.73 7.11z"/>
		<path id="&lt;Path&gt; copy 44" class="s4" d="m216.04 63.26c-0.09 4.91-12.63 8.26-25.19 8.26-12.57 0-25.1-3.35-25.19-8.26l0.1-11.19c3.81 5.13 13.63 8.78 25.14 8.78 11.37 0 21.1-3.57 25.01-8.61z"/>
		<path id="&lt;Path&gt; copy 45" class="s5" d="m195.12 30.63v23.91l-0.14 0.04-29.19-6.77-1.74-0.4-19.82-4.6v-1.55l43.31-12.04 0.03 0.01z"/>
		<path id="&lt;Path&gt; copy 46" class="s6" d="m237.46 38.47v1.55l-19.74 6.77-1.87 0.64-20.73 7.11v-23.91l36.34 6.73z"/>
		<path id="&lt;Path&gt; copy 47" class="s4" d="m144.33 41.26l43.26-12.04 49.87 9.25-42.43 14.56z"/>
		<path id="&lt;Path&gt; copy 48" class="s7" d="m159.49 40.96v22.02c0 0.65 1 0.65 1 0v-22.02c0-0.64-1-0.64-1 0z"/>
		<path id="&lt;Path&gt; copy 49" class="s7" d="m163.71 70.7c0 0.36-0.29 0.64-0.65 0.64h-6.13c-0.37 0-0.66-0.28-0.66-0.64l2.19-13.79c0-0.37 0.29-0.77 0.66-0.77h1.75c0.36 0 0.65 0.4 0.65 0.77z"/>
		<path id="&lt;Path&gt; copy 50" class="s8" d="m161.04 55.53c0 0.15-0.12 0.26-0.26 0.26h-1.69c-0.14 0-0.25-0.11-0.25-0.26v-0.08c0-0.14 0.11-0.26 0.25-0.26h1.69c0.14 0 0.26 0.12 0.26 0.26z"/>
		<path id="&lt;Path&gt; copy 51" class="s8" d="m161.04 56.18c0 0.14-0.12 0.26-0.26 0.26h-1.69c-0.14 0-0.25-0.12-0.25-0.26v-0.09c0-0.14 0.11-0.25 0.25-0.25h1.69c0.14 0 0.26 0.11 0.26 0.25z"/>
		<path id="&lt;Path&gt; copy 52" class="s8" d="m161.04 54.88c0 0.14-0.12 0.26-0.26 0.26h-1.69c-0.14 0-0.25-0.12-0.25-0.26v-0.09c0-0.14 0.11-0.25 0.25-0.25h1.69c0.14 0 0.26 0.11 0.26 0.25z"/>
		<path id="&lt;Path&gt; copy 53" class="s7" d="m191.15 40.48h-31.18c-0.64 0-0.64 1 0 1h31.18c0.64 0 0.64-1 0-1z"/>
		<path id="&lt;Path&gt; copy 54" class="s6" d="m190.9 42.49c-3.95 0-7.14-0.89-7.14-1.98 0-1.1 3.19-1.98 7.14-1.98 3.94 0 7.13 0.88 7.13 1.98 0 1.09-3.19 1.98-7.13 1.98z"/>
		<path id="&lt;Path&gt; copy 55" class="s9" d="m215.91 52.24c-3.91 5.04-13.64 8.61-25.01 8.61-11.51 0-21.33-3.65-25.14-8.78l0.03-4.26 29.19 6.77 0.14-0.04 20.73-7.11z"/>
		<path id="&lt;Path&gt; copy 56" class="s10" d="m138.4 134.67v9.35h-8.2v-6.97l2.29-0.6 1.79-0.5 1.48-0.44q1.37-0.42 2.64-0.84z"/>
		<path id="&lt;Path&gt; copy 57" class="s10" d="m148.81 130.49v13.53h-8.21v-10.11l0.65-0.24 1.06-0.4q0.15-0.05 0.3-0.11 0.38-0.14 0.78-0.3l1.07-0.44q0.28-0.11 0.58-0.24l0.55-0.23q0.95-0.4 1.87-0.83l0.43-0.19q0.39-0.18 0.77-0.36 0.07-0.04 0.15-0.08z"/>
		<path id="&lt;Path&gt; copy 58" class="s10" d="m159.22 124.42v19.6h-8.21v-14.62q0.21-0.11 0.41-0.22l1.19-0.64c1.76-0.97 3.3-1.9 4.71-2.83q0.97-0.64 1.9-1.29z"/>
		<path id="&lt;Path&gt; copy 59" class="s10" d="m169.63 115.22v28.8h-8.21v-21.22q0.2-0.15 0.4-0.31 2.2-1.74 4.1-3.5 0.32-0.3 0.62-0.59 0.16-0.15 0.32-0.31l0.47-0.45 0.45-0.46 0.87-0.89 0.83-0.9z"/>
		<path id="&lt;Path&gt; copy 60" class="s10" d="m180.03 109.12v34.9h-8.2v-31.37l0.25-0.31q0.17-0.21 0.36-0.45l0.69-0.91q0.27-0.35 0.53-0.71c0 0 0.62-0.87 0.66-0.93q0.2-0.27 0.4-0.57l0.88-1.32 0.29-0.46z"/>
		<path id="&lt;Path&gt; copy 61" class="s11" d="m179.32 107.23l-1.49-12.59-11.46 5.94 3.84 1.97q-0.05 0.09-0.1 0.18-0.25 0.49-0.55 1.09-0.32 0.58-0.69 1.26-0.18 0.33-0.39 0.68-0.21 0.36-0.43 0.73-0.21 0.37-0.46 0.75-0.24 0.39-0.49 0.79-0.13 0.2-0.26 0.4-0.14 0.2-0.28 0.4-0.27 0.41-0.56 0.84-0.3 0.41-0.6 0.84-0.16 0.22-0.32 0.43-0.16 0.22-0.32 0.43-0.33 0.44-0.67 0.88-0.36 0.44-0.72 0.88-0.18 0.22-0.36 0.45-0.19 0.22-0.38 0.44-0.38 0.44-0.78 0.89-1.6 1.78-3.43 3.52-1.85 1.73-3.87 3.34-2.03 1.6-4.15 3.03-0.53 0.35-1.06 0.7-0.53 0.35-1.06 0.68-0.27 0.16-0.53 0.33-0.27 0.16-0.53 0.32-0.53 0.32-1.06 0.62-1.06 0.62-2.1 1.17-0.26 0.14-0.51 0.28-0.26 0.14-0.51 0.27-0.52 0.26-1.02 0.52-0.5 0.26-0.99 0.49-0.49 0.24-0.97 0.47-0.48 0.23-0.94 0.44-0.46 0.22-0.91 0.42-1.81 0.8-3.3 1.4-0.75 0.3-1.39 0.56-0.65 0.25-1.19 0.45-0.26 0.1-0.5 0.19-0.25 0.09-0.46 0.17-0.42 0.15-0.71 0.26-0.59 0.21-0.6 0.21l0.27 0.87q0.01 0 0.61-0.16 0.3-0.08 0.74-0.19 0.22-0.06 0.47-0.13 0.25-0.07 0.53-0.15 0.56-0.15 1.24-0.34 0.67-0.2 1.45-0.43 1.56-0.48 3.46-1.12 0.48-0.16 0.97-0.34 0.49-0.18 1-0.36 0.5-0.19 1.02-0.39 0.53-0.19 1.06-0.41 0.54-0.21 1.08-0.43 0.28-0.11 0.55-0.23 0.28-0.12 0.56-0.24 1.11-0.47 2.26-1 0.57-0.27 1.14-0.55 0.29-0.13 0.58-0.27 0.29-0.15 0.58-0.3 0.58-0.29 1.16-0.59 0.58-0.32 1.17-0.63 2.34-1.29 4.62-2.77 2.28-1.5 4.41-3.16 2.11-1.67 4.01-3.43 0.47-0.44 0.92-0.88 0.23-0.22 0.45-0.44 0.22-0.22 0.44-0.44 0.43-0.45 0.86-0.88 0.41-0.45 0.81-0.88 0.2-0.22 0.4-0.44 0.19-0.22 0.38-0.44 0.37-0.43 0.74-0.86 0.36-0.42 0.69-0.84 0.18-0.21 0.34-0.42 0.17-0.2 0.33-0.41 0.31-0.41 0.61-0.81 0.31-0.39 0.58-0.77 0.28-0.39 0.54-0.75 0.26-0.36 0.5-0.71 0.47-0.71 0.88-1.31 0.39-0.62 0.71-1.14 0.12-0.18 0.23-0.36z"/>
		<path id="&lt;Path&gt; copy 4" class="s2" d="m207.48 219.06q-0.44-0.03-0.87-0.06c-3.87-0.25-7.88-0.37-11.94-0.37-4.06 0-8.27 0.12-12.53 0.37q-1.54 0.09-3.13 0.21v29.76h34.42v-29.39q-2.94-0.31-5.95-0.52z"/>
	</g>
</svg>